# xmcd
#
# Track frame offsets:
#	150
#	17717
#	26525
#	37975
#	49347
#	58850
#	68875
#	81647
#	96842
#	108077
#	122560
#	132755
#
# Disc length: 2027
#
# Revision: 1
# Processed by: cddbd v1.5.2PL0 Copyright (c) Steve Scherf et al.
# Submitted via: ExactAudioCopy v0.95a3
# Normalized: r0:TDELIM( - )
#
DISCID=9f07e90c
DTITLE=Various Artist - An Old Fashioned Country Christmas - CD 3
DYEAR=1996
DGENRE=Christmas
TTITLE0=Reba McEntire - O Holy Night
TTITLE1=Loretta Lynn - Frosty the Snowman
TTITLE2=Kitty Wells - Ole Kris Kringle
TTITLE3=Freddy Fender - Pretty Paper
TTITLE4=Brenda Lee - Rocking Around The Christmas Tree
TTITLE5=Bobby Helms - Jingle Bell Rock
TTITLE6=Burl Ives - Christmas Child (Loo, Loo, Loo)
TTITLE7=Lee Greenwood - Let it Snow
TTITLE8=Ray Stevens - Greatest Little Christmas That Ever Wuz
TTITLE9=Barbara Mandrell - It Must Have Been the Mistletoe (Our First Christmas)
TTITLE10=Red Foley - Silent Night
TTITLE11=Steve Wariner - Tennessee Christmas
EXTD=
EXTT0=
EXTT1=
EXTT2=
EXTT3=
EXTT4=
EXTT5=
EXTT6=
EXTT7=
EXTT8=
EXTT9=
EXTT10=
EXTT11=
PLAYORDER=
